<?xml version="1.0" encoding="UTF-8" standalone="no"?>
<svg
   version="1.1"
   id="Layer_1"
   x="0px"
   y="0px"
   width="100%"
   viewBox="0 0 310 310"
   enable-background="new 0 0 310 310"
   xml:space="preserve"
   sodipodi:docname="icon.svg"
   inkscape:version="1.1.2 (b8e25be833, 2022-02-05)"
   xmlns:inkscape="http://www.inkscape.org/namespaces/inkscape"
   xmlns:sodipodi="http://sodipodi.sourceforge.net/DTD/sodipodi-0.dtd"
   xmlns="http://www.w3.org/2000/svg"
   xmlns:svg="http://www.w3.org/2000/svg"><defs
   id="defs1615" /><sodipodi:namedview
   id="namedview1613"
   pagecolor="#ffffff"
   bordercolor="#666666"
   borderopacity="1.0"
   inkscape:pageshadow="2"
   inkscape:pageopacity="0.0"
   inkscape:pagecheckerboard="0"
   showgrid="false"
   inkscape:zoom="3.9826079"
   inkscape:cx="148.52077"
   inkscape:cy="152.66379"
   inkscape:window-width="2560"
   inkscape:window-height="1369"
   inkscape:window-x="-8"
   inkscape:window-y="-8"
   inkscape:window-maximized="1"
   inkscape:current-layer="Layer_1" />
<path
   fill="#000101"
   opacity="1"
   stroke="none"
   d="M 148,311 H 1.000052 C 1.000035,207.66673 1.000035,104.33348 1.000017,1.000163 104.33321,1.000109 207.66643,1.000109 310.99972,1.000054 c 10e-5,103.333106 10e-5,206.666266 1.9e-4,309.999706 C 256.83334,311 202.66667,311 148,311 M 111.52855,111.96344 c -11.659135,0.002 -24.49936,-0.36261 -36.158097,-0.29385 -5.622116,0.0332 -8.061386,2.12542 -8.068894,7.20409 -0.0583,39.47453 -0.0554,78.94923 -0.0043,118.42379 0.0064,4.9053 2.488319,7.40367 7.397529,7.41043 39.474546,0.0544 78.949216,0.052 118.423766,2.3e-4 4.73644,-0.006 7.15309,-2.31709 7.18213,-7.05734 0.0754,-12.31548 0.22332,-24.53012 -0.30945,-37.21022 11.48847,-0.0821 24.17345,-0.012 35.66187,-0.0986 7.306,-0.0551 9.07748,-1.83302 9.07936,-9.23007 0.01,-38.14631 0.0102,-76.29262 -9.3e-4,-114.438931 -0.002,-7.551888 -1.87339,-9.411682 -9.45146,-9.413536 -38.14632,-0.0093 -76.29264,-0.0099 -114.43895,0.0015 -7.31687,0.0022 -9.127,1.842895 -9.19471,9.138016 -0.10973,11.819953 -0.30723,22.704547 -0.1179,35.564468 z"
   id="path1602"
   sodipodi:nodetypes="cccccccscscsscssssssc" />
<path
   fill="#32defb"
   opacity="1"
   stroke="none"
   d="m 111.29655,111.85864 c 0.11731,-11.81988 0.24017,-23.639715 0.3499,-35.459668 0.0677,-7.295121 1.87784,-9.135819 9.19471,-9.138016 38.14631,-0.01145 76.29263,-0.01083 114.43895,-0.0015 7.57807,0.0019 9.44926,1.861648 9.45146,9.413536 0.0111,38.146308 0.0106,76.292618 9.3e-4,114.438928 -0.002,7.39705 -1.77336,9.17502 -9.07936,9.23007 -11.48842,0.0866 -22.97692,0.16533 -34.9852,0.24712 -0.51981,-2.6e-4 -0.67667,-0.14854 -0.63909,-0.64911 -0.009,-14.99313 -0.0555,-29.4857 -0.01,-44.43869 0.15113,-12.60837 0.24382,-24.75627 0.25025,-36.90421 0.002,-4.12223 -2.07292,-6.80772 -6.30336,-6.81659 -12.64081,-0.0265 -25.26075,0.64413 -38.369,0.69273 -14.98366,-0.0469 -29.52157,-0.48631 -44.06841,-0.5098 -0.0303,-0.0453 0.10135,0.50859 0.10135,0.50859 z"
   id="path1604"
   sodipodi:nodetypes="csssssscccsscccc" />
<path
   fill="#26fac4"
   opacity="1"
   stroke="none"
   d="m 199.99127,200.44057 c 0,0 0.0383,-0.55717 0.0376,-0.50057 0.0666,12.37296 0.34726,25.39531 0.27187,37.71079 -0.029,4.74025 -2.44569,7.05113 -7.18213,7.05734 -39.47455,0.0518 -78.94922,0.0542 -118.423766,-2.3e-4 -4.90921,-0.007 -7.391174,-2.50513 -7.397529,-7.41043 -0.05114,-39.47456 -0.05403,-78.94926 0.0043,-118.42379 0.0075,-5.07867 2.446778,-7.17094 8.068894,-7.20409 11.658737,-0.0688 23.318146,-0.0243 35.451691,0.0813 0.47441,0.10771 0.67613,0.16721 0.77727,0.67581 0.14416,4.50093 0.22193,8.49321 0.22445,12.48554 0.0141,22.4653 -0.0165,44.93068 0.0304,67.39589 0.0123,5.89062 1.91827,7.73925 7.77694,7.84106 3.65996,0.0636 7.32184,0.009 10.98282,0.0226 23.12575,0.0872 50.52001,0.42979 69.37719,0.26878 z"
   id="path1606"
   sodipodi:nodetypes="ccssssssccsssscc" />
<path
   fill="#327dfc"
   opacity="1"
   stroke="none"
   d="m 199.99123,200.44057 c -21.15459,0.1594 -46.25147,-0.18158 -69.37722,-0.26876 -3.66098,-0.0138 -7.32286,0.0411 -10.98282,-0.0226 -5.85867,-0.10181 -7.76464,-1.95044 -7.77694,-7.84106 -0.0469,-22.46521 -0.0162,-44.93059 -0.0304,-67.39589 -0.003,-3.99233 -0.18143,-8.4932 -0.2953,-12.94882 14.4457,0.0171 35.08958,0.002 44.06819,0.5098 0.45563,13.35125 0.51635,26.17351 0.32831,38.99254 -0.0505,3.44446 0.99953,4.66536 4.5405,4.61516 13.15169,-0.18654 26.30722,-0.10222 39.46132,-0.1196 0.33116,20.14014 0.30111,21.09051 0.0644,44.47923 z"
   id="path1608"
   sodipodi:nodetypes="cscssccscccc" />
<path
   fill="#010406"
   opacity="1"
   stroke="none"
   d="m 199.92687,155.96155 c -14.75284,-0.0243 -26.30962,-0.0667 -39.46131,0.11981 -3.54097,0.0502 -4.59102,-1.1707 -4.5405,-4.61516 0.18804,-12.81903 -0.33982,-25.71039 -0.32832,-38.99296 15.63307,-0.32745 25.72841,-0.71925 38.36922,-0.69273 4.23044,0.009 6.30552,2.69436 6.30336,6.81659 -0.006,12.14794 -0.19133,24.75608 -0.34245,37.36445 z"
   id="path1610"
   sodipodi:nodetypes="csscssc" />
</svg>
